<?xml version="1.0" encoding="UTF-8" standalone="no"?>
<svg
   width="100%"
   height="100%"
   viewBox="0 0 5443 6237"
   version="1.1"
   xml:space="preserve"
   style="fill-rule:evenodd;clip-rule:evenodd;stroke-linejoin:round;stroke-miterlimit:2;"
   id="svg188"
   sodipodi:docname="Option2–LightModeColor2–NoBackground.svg"
   inkscape:version="1.1.2 (0a00cf5339, 2022-02-04)"
   xmlns:inkscape="http://www.inkscape.org/namespaces/inkscape"
   xmlns:sodipodi="http://sodipodi.sourceforge.net/DTD/sodipodi-0.dtd"
   xmlns="http://www.w3.org/2000/svg"
   xmlns:svg="http://www.w3.org/2000/svg"><defs
   id="defs192" /><sodipodi:namedview
   id="namedview190"
   pagecolor="#ffffff"
   bordercolor="#000000"
   borderopacity="0.25"
   inkscape:pageshadow="2"
   inkscape:pageopacity="0.0"
   inkscape:pagecheckerboard="0"
   showgrid="false"
   inkscape:zoom="0.30174764"
   inkscape:cx="2720.8167"
   inkscape:cy="3118.5"
   inkscape:window-width="3840"
   inkscape:window-height="2091"
   inkscape:window-x="0"
   inkscape:window-y="32"
   inkscape:window-maximized="1"
   inkscape:current-layer="svg188" />
    
    <g
   transform="matrix(6.95125,0,0,4.68249,-528.369,3816.35)"
   id="g163">
        <path
   d="M190.868,292.14L142.269,292.14L142.269,341.892L189.152,341.892L189.152,371.26L142.269,371.26L142.269,469.825L121.221,469.825L121.221,262.772L190.868,262.772L190.868,292.14Z"
   style="fill:rgb(218,44,56);fill-rule:nonzero;"
   id="path143" />
        <path
   d="M232.06,339.21L232.06,469.825L211.735,469.825L211.735,339.21L232.06,339.21ZM208.664,284.899C208.664,279.624 209.958,275.065 212.548,271.22C215.138,267.376 218.239,265.454 221.852,265.454C225.526,265.454 228.657,267.376 231.247,271.22C233.837,274.975 235.131,279.579 235.131,285.033C235.131,290.486 233.837,295.135 231.247,298.979C228.718,302.824 225.616,304.746 221.943,304.746C218.269,304.746 215.138,302.824 212.548,298.979C209.958,295.135 208.664,290.442 208.664,284.899Z"
   style="fill:rgb(218,44,56);fill-rule:nonzero;"
   id="path145" />
        <path
   d="M257.805,339.21L278.13,339.21L278.13,350.877C281.864,345.066 285.176,341.087 288.067,338.942C291.018,336.707 294.51,335.589 298.545,335.589C303.905,335.589 309.506,338.182 315.347,343.367L306.043,370.992C302.189,366.88 298.425,364.823 294.751,364.823C283.67,364.823 278.13,377.25 278.13,402.104L278.13,469.825L257.805,469.825L257.805,339.21Z"
   style="fill:rgb(218,44,56);fill-rule:nonzero;"
   id="path147" />
        <path
   d="M405.861,411.625L342.809,411.625C343.351,422.353 345.699,430.891 349.855,437.238C354.01,443.496 359.34,446.625 365.844,446.625C370.902,446.625 375.088,444.837 378.4,441.261C381.652,437.685 385.356,431.07 389.511,421.414L406.674,435.629C404.025,442.334 401.224,448.078 398.273,452.861C395.322,457.644 392.161,461.578 388.788,464.662C385.416,467.746 381.772,470.004 377.858,471.434C373.944,472.865 369.698,473.58 365.121,473.58C351.993,473.58 341.454,467.322 333.504,454.806C325.555,442.2 321.58,425.482 321.58,404.652C321.58,384 325.435,367.282 333.143,354.498C340.912,341.892 351.21,335.589 364.037,335.589C376.985,335.589 387.223,341.713 394.75,353.961C402.218,366.12 405.952,382.972 405.952,404.518L405.861,411.625ZM384.994,386.95C382.164,370.858 375.329,362.812 364.489,362.812C362.02,362.812 359.701,363.371 357.533,364.488C355.365,365.606 353.393,367.215 351.616,369.316C349.84,371.417 348.319,373.942 347.054,376.893C345.79,379.843 344.826,383.195 344.164,386.95L384.994,386.95Z"
   style="fill:rgb(218,44,56);fill-rule:nonzero;"
   id="path149" />
        <path
   d="M510.829,293.615L493.756,308.635C490.564,300.41 487.523,295.046 484.632,292.543C481.621,289.682 477.737,288.251 472.979,288.251C467.137,288.251 462.29,290.71 458.435,295.627C454.581,300.455 452.654,306.534 452.654,313.865C452.654,323.967 457.713,332.103 467.83,338.271L481.741,346.72C493.063,353.514 501.344,361.806 506.583,371.596C511.822,381.385 514.442,393.387 514.442,407.602C514.442,426.644 510.166,442.379 501.615,454.806C493.003,467.322 482.313,473.58 469.546,473.58C457.442,473.58 447.445,468.261 439.556,457.622C431.787,446.983 426.939,432.008 425.012,412.698L446.331,405.724C447.294,417.883 448.98,426.287 451.389,430.936C455.725,439.876 462.049,444.346 470.359,444.346C476.924,444.346 482.374,441.083 486.71,434.556C491.046,428.03 493.214,419.76 493.214,409.747C493.214,405.724 492.837,402.037 492.084,398.684C491.332,395.332 490.157,392.247 488.561,389.431C486.966,386.615 484.903,383.978 482.374,381.519C479.844,379.061 476.833,376.714 473.34,374.479L459.881,366.164C440.79,354.185 431.245,336.662 431.245,313.597C431.245,298.041 435.25,285.033 443.259,274.573C451.269,264.024 461.236,258.749 473.16,258.749C489.239,258.749 501.795,270.371 510.829,293.615Z"
   style="fill:rgb(218,44,56);fill-rule:nonzero;"
   id="path151" />
        <path
   d="M556.266,243.327L556.266,381.452L584.902,339.21L612.183,339.21L573.972,394.058L614.983,469.825L588.606,469.825L559.518,414.709L556.266,419.537L556.266,469.825L535.941,469.825L535.941,243.327L556.266,243.327Z"
   style="fill:rgb(218,44,56);fill-rule:nonzero;"
   id="path153" />
        <path
   d="M648.406,339.21L648.406,469.825L628.081,469.825L628.081,339.21L648.406,339.21ZM625.01,284.899C625.01,279.624 626.305,275.065 628.894,271.22C631.484,267.376 634.585,265.454 638.199,265.454C641.872,265.454 645.004,267.376 647.593,271.22C650.183,274.975 651.478,279.579 651.478,285.033C651.478,290.486 650.183,295.135 647.593,298.979C645.064,302.824 641.963,304.746 638.289,304.746C634.615,304.746 631.484,302.824 628.894,298.979C626.305,295.135 625.01,290.442 625.01,284.899Z"
   style="fill:rgb(218,44,56);fill-rule:nonzero;"
   id="path155" />
        <rect
   x="674.151"
   y="243.327"
   width="20.325"
   height="226.498"
   style="fill:rgb(218,44,56);fill-rule:nonzero;"
   id="rect157" />
        <rect
   x="720.221"
   y="243.327"
   width="20.325"
   height="226.498"
   style="fill:rgb(218,44,56);fill-rule:nonzero;"
   id="rect159" />
        <path
   d="M817.42,361.471L800.618,374.747C797.968,366.701 794.686,362.678 790.772,362.678C788.905,362.678 787.309,363.594 785.984,365.427C784.659,367.26 783.997,369.606 783.997,372.467C783.997,377.474 787.911,382.435 795.74,387.352C806.52,394.236 813.776,400.584 817.51,406.395C821.244,412.206 823.111,420.029 823.111,429.863C823.111,442.468 819.979,453.018 813.716,461.511C807.634,469.557 800.287,473.58 791.675,473.58C776.921,473.58 766.472,462.896 760.329,441.53L777.673,429.595C780.082,435.853 781.919,439.831 783.184,441.53C785.653,444.927 788.604,446.625 792.036,446.625C798.902,446.625 802.334,441.977 802.334,432.679C802.334,427.315 799.685,422.308 794.385,417.659C792.337,416.14 790.29,414.665 788.242,413.234C786.195,411.804 784.117,410.329 782.009,408.809C776.108,404.518 771.952,400.226 769.543,395.935C766.472,390.482 764.936,383.464 764.936,374.881C764.936,363.527 767.556,354.14 772.795,346.72C778.155,339.299 784.659,335.589 792.307,335.589C803.569,335.589 811.94,344.216 817.42,361.471Z"
   style="fill:rgb(218,44,56);fill-rule:nonzero;"
   id="path161" />
    </g>
    <g
   transform="matrix(2.35097,4.996e-18,-4.44946e-18,2.63975,436.006,29.8071)"
   id="g167">
        <path
   d="M263.681,835.399C259.995,839.086 212.479,945.316 278.884,993.343C310.85,1016.46 419.51,1036.15 407.432,895.904C403.672,852.243 374.821,750.765 406.733,666.918C446.702,561.9 560.501,521.623 560.939,521.584C479.234,649.247 583.838,826.104 696.358,778.059C773.069,745.304 778.095,696.617 778.261,696.648C795.907,610.73 709.903,525.784 720.327,369.433C730.256,220.499 813.164,173.123 829.324,163.889C826.382,345.726 944.95,288.508 970.498,262.321C1050.54,180.276 922.542,59.231 909.53,46.927C913.154,48.293 913.737,45.838 956.453,58.838C1028.8,80.854 1192.84,159.317 1281.97,363.876C1343.14,504.268 1328.68,628.987 1381.93,674.548C1408.92,697.642 1465.8,703.952 1485.35,680.61C1518.19,641.388 1506.21,594.8 1482.05,577.887C1498.55,579.829 1504.81,581.277 1514.16,583.424C1536.1,589.109 1578.51,617.034 1590.53,661.316C1604.85,714.04 1582.58,793.296 1566.03,827.712C1561.56,836.989 1471.62,978.485 1525.12,1037.92C1524.9,1041 1610.42,1135.45 1686.98,1085.28C1727.42,1058.78 1760.17,998.831 1734.61,947.719C1755.13,936.946 1910.25,1207.54 1797.06,1519.02C1727.95,1709.2 1579.35,1875.54 1376.14,1880.2C1396.64,1875.86 1483.59,1878.98 1589.2,1761.75C1812.37,1514.01 1774.71,1181.05 1768.79,1128.74C1778.52,1147.56 1637.33,1290.53 1485.36,1180.96C1473.68,1172.53 1392.63,1114.1 1412.71,1016.21C1417.7,991.871 1455.05,917.424 1395.21,877.569C1394.75,912.839 1332.26,993.388 1254.47,967.538C1156.06,934.839 1070.79,886.304 1143.29,745.255C1194.71,645.217 1196.15,645.681 1197.7,635.454C1222.19,474.061 1119.95,436.169 1083.42,431.065C1121.53,444.744 1139.03,528.996 1118.21,557.743C1105.99,574.613 1052.38,615.274 996.77,608.682C921.569,599.767 901.918,545.122 898.61,535.924C861.271,618.633 946.351,664.65 930.212,761.684C914.072,858.725 840.409,903.262 816.153,914.034C799.423,921.463 683.686,959.876 601.012,914.879C553.004,888.749 528.853,837.733 529.414,825.269C498.601,870.256 552.115,961.18 541.725,1015.22C522.271,1116.42 383.814,1123.09 367.4,1123.88C247.43,1129.66 223.106,1048.46 221.499,1017.79C180.022,1073.97 182.212,1142.27 195.568,1169.6C216.085,1211.59 278.373,1256.49 258.607,1420.19C254.651,1452.96 236.117,1539.62 236.177,1553.68C236.802,1699.8 388.625,1792.65 426.214,1815.48C501.067,1860.94 564.855,1895.49 720.148,1946.14C391.526,1878.11 269.113,1778.01 193.022,1633.73C27.854,1320.53 124.409,952.978 263.681,835.399Z"
   style="fill:rgb(218,44,56);"
   id="path165" />
    </g>
    <g
   id="Layer1"
   transform="matrix(2.96993,0,0,2.96993,-50.1321,200.592)">
        <path
   d="M979.901,1329.43C992.648,1331.43 978.71,1335.61 970.459,1338.09C921.775,1352.68 889.183,1362.85 887.021,1365.38C878.637,1375.23 865.242,1397.99 852.162,1420.94C848.466,1427.43 870.638,1467.62 874.628,1483.08C875.116,1484.97 874.492,1490.73 872.625,1491.69C865.799,1495.23 815.652,1506.49 806.56,1503.76C792.41,1499.51 728.046,1437.05 724.03,1433.23C702.456,1412.75 691.293,1404.98 685.624,1402.32C672.923,1396.35 674.011,1396.52 685.007,1381.61C688.415,1376.99 765.558,1350.12 799.732,1341.93C882.277,1322.13 935.431,1322.46 979.901,1329.43Z"
   style="fill:rgb(218,44,56);"
   id="path169" />
        <path
   d="M540.464,1184.28C543.739,1181.45 547.246,1184.04 555.656,1193.12C570.506,1209.16 565.887,1193.02 550.49,1262.22C548.402,1271.6 544.982,1272.96 536.883,1293.69C526.255,1320.9 525.881,1336.8 525.712,1335.15C523.637,1314.82 525.539,1281.78 528.16,1251.1C530.923,1218.76 533.905,1189.94 540.464,1184.28Z"
   style="fill:rgb(218,44,56);"
   id="path171" />
        <path
   d="M1071.35,990.421C1072.79,991.316 1040.97,990.982 1015.5,985.921C956.81,974.257 941.502,959.777 764.56,985.055C758.475,985.924 715.568,965.708 718.947,962.148C720.217,960.811 721.172,958.681 723.851,957.325C744.702,946.777 804.357,937.059 822.809,935.918C834.104,935.22 883.695,935.501 946.376,950.669C1003.61,964.518 1051.25,977.896 1071.35,990.421Z"
   style="fill:rgb(218,44,56);"
   id="path173" />
        <path
   d="M1006.99,1086.25C1013.62,1090.32 1016.81,1097.97 1027.91,1111.01C1034.19,1118.4 1073.61,1129.73 1116.64,1150.59C1155.7,1169.52 1216.18,1192.55 1226.01,1199.88C1229.04,1202.14 1227.88,1216.89 1226.77,1227.52C1225.95,1235.49 1165.65,1254.91 1160.35,1249.83C1106.75,1198.46 1084.87,1163.67 1071.8,1153.64C1025.41,1118.07 880.761,1073.08 867.368,1069.81C860.536,1068.14 890.716,1068.63 919.168,1070.28C927.79,1070.77 998.172,1080.84 1006.99,1086.25Z"
   style="fill:rgb(218,44,56);"
   id="path175" />
        <path
   d="M475.597,1301.25C473.186,1241.22 492.621,1138.45 517.82,1120.7C537.809,1106.61 532.266,1112.39 575.626,1052.62C613.018,1001.07 667.386,961.225 669.059,960.558C675.865,940.139 670.208,938.129 686.814,927.177C709.204,912.412 760.001,897.056 839.924,898.648C963.705,901.114 1101.34,963.996 1179.01,1008.08C1181.6,1009.56 1184.54,1012.09 1184.45,1012.58C1184.2,1013.9 1182.56,1015.4 1176.87,1017.13C1167.35,1020.01 1141.15,1027.84 1131.82,1032.55C1127.38,1034.78 1129.85,1036.27 1131.09,1037.03C1166.98,1058.98 1278.46,1164.12 1278.57,1169.36C1279.4,1210 1278.84,1234.47 1276.48,1239.11C1269.83,1252.19 1239.25,1279.8 1238.7,1280.19C1227.83,1287.82 1156.27,1299.32 1150.95,1305.2C1144.76,1312.03 1111.17,1362.41 1108.99,1363.51C1097.78,1369.11 1047.22,1377.28 1028.06,1383.25C993.548,1394 981.247,1397.85 951.623,1410.03C932.414,1442.51 928.897,1457.64 930.269,1461.55C932.112,1466.79 939.35,1483.14 940.587,1488.63C942.884,1498.81 925.248,1529 917.476,1535.37C914.81,1537.56 905.343,1544.91 876.218,1552.71C856.846,1557.9 827.294,1569.84 801.83,1564.9C781.593,1560.97 758.991,1542.23 724.266,1519.13C698.656,1502.1 674.74,1481.92 664.874,1479.93C622.366,1471.37 568.229,1466.92 565.165,1467.22C539.902,1469.66 524.879,1472.66 509.371,1470.98C454.287,1465 449.37,1435.02 457.957,1422.9C465.845,1411.77 483.177,1394.85 482.555,1386.62C481.129,1367.74 476.604,1326.33 475.597,1301.25ZM1034.78,1326.19C1003.17,1316.51 898.504,1290.07 787.22,1323.15C753.535,1333.17 656.417,1369.81 653.567,1374.79C637.757,1402.46 637.858,1402.28 645.973,1404.41C648.53,1405.08 678.791,1421.43 706.725,1446.18C710.87,1449.85 783.953,1522.15 798.103,1526.4C807.195,1529.12 889.596,1513.58 895.16,1501.89C895.365,1501.46 898.063,1495.37 897.575,1493.48C893.585,1478.02 867.609,1433.57 872.272,1423.39C883.281,1399.38 891.96,1388.95 900.344,1379.11C902.506,1376.57 935.626,1364.87 983.903,1348.98C988.139,1347.58 1042.91,1328.68 1034.78,1326.19ZM1019.26,1071.72C1004.03,1060.95 920.755,1058.04 912.119,1058.04C864.118,1058.04 811.199,1062.76 818.142,1063.88C836.047,1066.77 1013.83,1128.83 1060.21,1164.41C1073.29,1174.43 1097.14,1220.51 1150.75,1271.88C1156.05,1276.96 1246.75,1245.34 1247.58,1237.37C1248.68,1226.75 1250.6,1194.3 1247.57,1192.05C1237.74,1184.71 1164.79,1154.51 1125.74,1135.57C1082.71,1114.71 1044.57,1102.18 1038.29,1094.79C1027.19,1081.75 1025.6,1076.21 1019.26,1071.72ZM1105.74,998.301C1093.92,984.007 1019.93,956.32 950.825,940.242C888.013,925.628 829.616,921.829 818.355,922.955C716.62,933.131 703.318,950.96 696.565,964.791C694.412,969.202 757.594,998.245 763.679,997.376C940.621,972.099 958.625,985.712 1017.32,997.376C1042.78,1002.44 1106.82,999.606 1105.74,998.301ZM539.08,1164.58C532.876,1166.07 525.555,1164.19 516.196,1239.37C511.894,1273.94 516.998,1369.42 522.356,1376.21C522.534,1376.44 530.973,1346.76 541.6,1319.56C549.7,1298.82 560.271,1280.72 562.359,1271.33C577.756,1202.14 586.86,1200.83 565.979,1183.71C557.688,1176.92 543.723,1163.47 539.08,1164.58Z"
   style="fill:rgb(68,100,173);"
   id="path177" />
        <g
   transform="matrix(1,0,0,1,10.3177,1.57887)"
   id="g181">
            <path
   d="M1213.67,1019.19C1266.1,1042.7 1334.18,1095.57 1388.43,1147.82C1405.66,1164.41 1393.07,1180.81 1380.41,1191.35C1376.44,1194.65 1368.89,1194.88 1366.85,1197.57C1350.56,1219.07 1340.28,1231.64 1339.26,1236.78C1335.15,1257.58 1344.37,1281.21 1358.57,1351.93C1361.54,1366.69 1362.14,1375.48 1360.78,1375.64C1353.58,1376.51 1346.34,1374.38 1320.22,1372.42C1198.64,1363.28 1191.17,1370.86 1163.86,1371.77C1155.55,1372.05 1124.75,1365.27 1127.11,1360.36C1130.71,1352.89 1154.72,1318.41 1159.69,1315.38C1167.73,1310.49 1232.67,1300.75 1245.92,1289.16C1250,1285.59 1290.06,1247.37 1290.41,1237.99C1291.41,1212.03 1294.23,1182.17 1291.93,1166.46C1291.35,1162.51 1273.36,1144.78 1254.85,1127.54C1205.49,1081.59 1197.73,1075.01 1154.7,1038.61C1167.58,1033.16 1184.59,1027.67 1213.67,1019.19Z"
   style="fill:rgb(68,100,173);"
   id="path179" />
        </g>
        <g
   transform="matrix(1,0,0,1,4.52388,13.5171)"
   id="g185">
            <path
   d="M1359.27,1391.37C1367.84,1399.94 1379.23,1449.89 1384.82,1473.41C1242.95,1416.36 1070.15,1392.48 1042.92,1390.78C1112.14,1376.93 1318.78,1376.96 1359.27,1391.37Z"
   style="fill:rgb(68,100,173);"
   id="path183" />
        </g>
    </g>
</svg>
